<svg xmlns="http://www.w3.org/2000/svg" width="375" height="375" version="1.0"><g fill-rule="evenodd" stroke="#4b4b4b" stroke-linejoin="bevel" opacity=".9"><path fill="#c8c8c8" d="M32 167l58-79 53 41-16 90-66 31-29-83z" opacity=".5"/><path fill="#c3c8e4" d="M143 129l92-11 39 86-69 61-78-46 16-90z" opacity=".5"/><path fill="#c4c8dc" d="M90 88l69-45 98 23-22 52-91 11-54-41z" opacity=".5"/><path fill="#bec8ff" d="M257 66l64 67 7 91-54-20-39-86 22-52z" opacity=".5"/><path fill="#c6c8d2" d="M61 250l44 78 97 5 3-68-78-46-66 31z" opacity=".5"/><path fill="#c0c8f8" d="M274 204l54 20-47 90-79 19 3-68 69-61z" opacity=".5"/><g><path fill="#c6c8d2" d="M159 42L90 89l-59 78 26 19 91-88 11-56z" opacity=".6"/><path fill="#c1c8f2" d="M159 43l98 24 64 66-60 30-113-65 11-55z" opacity=".6"/><path fill="#c8c8c8" d="M31 167l26 19 52 114-4 28-45-78-29-83z" opacity=".6"/><path fill="#c3c8e6" d="M109 300l126-10 47 24-80 20-97-6 4-28z" opacity=".6"/><path fill="#bec8ff" d="M261 164l60-31 7 91-46 90-47-24 26-126z" opacity=".6"/><path fill="#c4c8e1" d="M148 98l113 65-26 127-125 10-53-114 91-88z" opacity=".6"/></g></g></svg>